<svg xmlns="http://www.w3.org/2000/svg" xmlns:xlink="http://www.w3.org/1999/xlink" xml:space="preserve" version="1.1" style="shape-rendering:geometricPrecision;text-rendering:geometricPrecision;image-rendering:optimizeQuality;" viewBox="0 0 847 1058.75" x="0px" y="0px" fill-rule="evenodd" clip-rule="evenodd"><defs><style type="text/css">
   
    .fil0 {fill:black;fill-rule:nonzero}
   
  </style></defs><g><path class="fil0" d="M342 803c0,9 -7,17 -17,17l-89 0c-47,0 -86,-39 -86,-87l0 -270 -31 0c-36,0 -66,-30 -66,-66 0,-22 304,-311 358,-365 7,-7 18,-7 24,0 58,62 358,339 358,365 0,36 -29,66 -65,66l-31 0 0 270c0,48 -39,87 -87,87l-89 0c-9,0 -17,-8 -17,-17l0 -159c0,-91 -162,-91 -162,0l0 159z"/></g></svg>